<svg xmlns="http://www.w3.org/2000/svg" width="24" height="24" viewBox="0 0 24 24" fill="none" aria-hidden="true">
  <g stroke="currentColor" stroke-width="1.8" stroke-linecap="round" stroke-linejoin="round">
    <path d="M8 4.5C8 6.2 9.1 7 10.5 7H13.5C15.4 7 16.5 8.1 16.5 10V12.2C16.5 14.3 15.2 15.4 13.8 16.2L12.6 16.9C11.3 17.6 10.5 18.3 10.5 19.5"/>
    <path d="M8 13.5C8 15 9.2 15.7 10.6 16.4L12 17.1"/>
    <path d="M16 4.5V10"/>
  </g>
  <g fill="currentColor">
    <rect x="6.3" y="2.8" width="3.4" height="3.4" rx="0.6"/>
    <rect x="14.3" y="2.8" width="3.4" height="3.4" rx="0.6"/>
    <rect x="6.3" y="11.8" width="3.4" height="3.4" rx="0.6"/>
    <circle cx="12" cy="20" r="2.3"/>
  </g>
</svg>

